<?xml version="1.0" encoding="UTF-8"?>
<svg version="1.1" xmlns="http://www.w3.org/2000/svg" width="14" height="17">
<path d="M0 0 C1.32 0 2.64 0 4 0 C4.33 0.99 4.66 1.98 5 3 C5.66 3.33 6.32 3.66 7 4 C7.02686553 5.97909398 7.04633375 7.95828971 7.0625 9.9375 C7.07410156 11.03964844 7.08570313 12.14179688 7.09765625 13.27734375 C7 16 7 16 6 17 C4.19072719 17.12487758 2.37603893 17.17570846 0.5625 17.1875 C-0.42621094 17.20167969 -1.41492188 17.21585938 -2.43359375 17.23046875 C-5 17 -5 17 -7 15 C-7.265625 12.6875 -7.265625 12.6875 -7.25 10 C-7.25515625 9.113125 -7.2603125 8.22625 -7.265625 7.3125 C-7 5 -7 5 -5 3 C-4.319375 2.835 -3.63875 2.67 -2.9375 2.5 C-2.298125 2.335 -1.65875 2.17 -1 2 C-0.67 1.34 -0.34 0.68 0 0 Z " fill="#FFFFFF" transform="translate(7,0)"/>
</svg>
