<?xml version="1.0" encoding="UTF-8"?>
<svg version="1.1" xmlns="http://www.w3.org/2000/svg" width="20" height="20">
<path d="M0 0 C3.55948201 0.32358927 5.53463476 0.6100994 8.3125 2.9375 C11.13468745 6.38684022 11.34798033 8.56325077 11 13 C9.72311154 15.80915461 8.68900183 17.50106764 6.1875 19.3125 C2.13938379 20.58476509 -0.87987109 20.50914951 -4.75 18.75 C-7.12195739 16.90514426 -8.05783877 15.82648369 -9 13 C-9 11.68 -9 10.36 -9 9 C-6 10 -6 10 -4.6875 11.625 C-2.94724406 13.37258338 -2.94724406 13.37258338 0.1875 12.6875 C1.115625 12.460625 2.04375 12.23375 3 12 C3.85650653 9.19954954 3.85650653 9.19954954 4 6 C2.14567913 3.72855926 2.14567913 3.72855926 0 2 C0 1.34 0 0.68 0 0 Z " fill="#FFFFFF" transform="translate(9,0)"/>
</svg>
